<?xml version="1.0" encoding="utf-8"?>
<!-- Generator: Adobe Illustrator 18.1.1, SVG Export Plug-In . SVG Version: 6.00 Build 0)  -->
<!DOCTYPE svg PUBLIC "-//W3C//DTD SVG 1.1//EN" "http://www.w3.org/Graphics/SVG/1.1/DTD/svg11.dtd">
<svg version="1.1"
	 id="Layer_1" inkscape:version="0.48.1 " sodipodi:docname="Blank_Map-Africa.svg" xmlns:svg="http://www.w3.org/2000/svg" xmlns:cc="http://creativecommons.org/ns#" xmlns:inkscape="http://www.inkscape.org/namespaces/inkscape" xmlns:sodipodi="http://sodipodi.sourceforge.net/DTD/sodipodi-0.dtd" xmlns:dc="http://purl.org/dc/elements/1.1/" xmlns:rdf="http://www.w3.org/1999/02/22-rdf-syntax-ns#"
	 xmlns="http://www.w3.org/2000/svg" xmlns:xlink="http://www.w3.org/1999/xlink" x="0px" y="0px" viewBox="0 0 602 642"
	 enable-background="new 0 0 602 642" xml:space="preserve">
<g id="g3248">
	<path id="Aegypten" inkscape:connector-curvature="0" fill="#2C414F" stroke="#23353E" d="M367.9,136.2l69.7-2.1l2.3,2.2l4.6-0.6
		l0.4-3.9l5.2-1.4l1-4.8l2.2,0.7l2.8-3l-1.6-7.5l2.4,0.1l-5.9-5.2l-16.3-26.9l-0.1-3.2c-3.8-2.5-6.7-5.7-8.4-9.7l-0.2-2.4l-2.4-1.8
		l0.6-3.9l7.3,9.8c0.6,0.7-0.1,1.3,0.5,2.1c1.9,2.6,5.2,5.2,7.2,6.9c1-0.3,2.2-0.1,2.6-2.1l1.9-12.7l-8.6-17.4
		c-5.8,4.1-11.5,5.7-17.3-0.3l-7.1,0.5c-1.7,0.7-3.3,1.7-4.3,0.1l-11.4,6.7L376.4,52c-2.9-0.6-5.9-1.6-8.2-1.1
		c-2.4,1.5-4.1,0.3-5.8-0.8c-1,1.7-2,3.4-1,4.4l0.7,6.9c-1.7,2.7-3.2,5.4,2.1,11.8L367.9,136.2L367.9,136.2z"/>
	<g id="Aequatorialguinea" transform="translate(-111.5439,-93.00714)">
		<path id="path64" inkscape:connector-curvature="0" fill="#2C414F" stroke="#23353E" d="M360.5,415.6l-14.3,0.7l-2.9-1.9l4.3-8.2
			l12.8-0.2L360.5,415.6L360.5,415.6z"/>
		<path id="path66" inkscape:connector-curvature="0" fill="#2C414F" stroke="#23353E" d="M321,423.1c0,0.9-0.7,1.6-1.6,1.6
			s-1.6-0.7-1.6-1.6s0.7-1.6,1.6-1.6S321,422.3,321,423.1z"/>
		<path id="path68" inkscape:connector-curvature="0" fill="#2C414F" stroke="#23353E" d="M327.1,410.8c0,0.7-0.5,1.2-1.2,1.2
			c-0.7,0-1.2-0.5-1.2-1.2s0.5-1.2,1.2-1.2C326.5,409.6,327.1,410.1,327.1,410.8L327.1,410.8z"/>
	</g>
	<path id="Aethopien" inkscape:connector-curvature="0" fill="#2C414F" stroke="#23353E" d="M575.6,257.3l-25.4,29l-10-0.2
		c-1.2,0.3-5.8,3.1-8.5,5.5c-2.2,1.9-5.5,3-8.9,4.6c-2,0-4.5,0.7-5.9-0.3c-3.3-3.2-7.2-1.7-10.9-0.4c-1.3,2.3-3,4.1-5.8,4.9
		l-13.6-2.1c-3.1-2.6-6.5-5-10.7-7l-7.5-0.5v-6.1l-5.9-2.2l-4.3-9.8l-6.2-4.9c1.1-1.8-1.8-3.4-3.4-5c-2.1,0.4-4.2,0.1-6.3-1l1.8-2.2
		l-0.1-2.9l5.4,0.1c1.1-0.7,2.4-1,3.4-3l-0.2-15.9l2.6-4.1l2.7,0.1l1.2-6.8c3.2-4,4.5-8.9,9.8-12.1l1.4-11.8l4.4-0.1l0.6-1.4
		l2.1,0.1l1.8,3l2.6-6.9c1.7,1.1,3.9,1.1,4.9,3.5l4.4-0.9l0.7-1.4l0.8-0.2l1,1.8c1.4-0.9,3.1-1.7,5.2-0.3c0.6,0.3,1.4,0.4,3.1-0.5
		c1.7,1,2.8,2.9,5.2,2.7c5.6,4.9,11,10,15.7,15.6c-0.4,0.4-0.6,1.9-1,5.4l-2.1,3.7c-1.7,2.7,0.3,5.2,3.5,4l2.8-1l2.8,1.1
		c-3.4,3.9,4.6,10.7,11.9,17.4l26,8.3L575.6,257.3L575.6,257.3z"/>
	<path id="Algerien" inkscape:connector-curvature="0" fill="#2C414F" stroke="#23353E" d="M90.5,69.2L99,65l1.7,0.6l2.9-2.5
		l4.9,0.4l0.3-2.3c10,0.4,12.1-2.2,13.9-4.9l8.5-3.5l3.1,0.1l-1.7-2.2l0.4-1.7l-0.1-2.8c3.2-0.4,7.4,0.1,7.4-3.4l13.6,0.2l1.9-3.9
		c-2.6-1-3.1-4.7-2.7-8.7c0.3-3,0-9.8,0-9.8c-0.9-1.1-2-2.1-2.3-3.7c0.7-0.3,4.2,0.2,6.2-2.5c1-1.4,2.4-4.4,4.2-3.8
		c2.1,0.7,6,1,6.3-0.3c0.3-1.4,4.1-4.5,9.7-4.5c10.2,0.1,23.5-3.8,27.8-2.6c4.4,1.3,10-1.7,12.5-1.6c2.5,0.2,3.2,2.9,6.7,0.6
		c1.3-0.9,5.9,2.7,10.3,1.5c0,0-2.6,1.1-2.8,3.8c-0.2,4.2-0.6,17.1-0.6,17.1c-0.4-0.7-3.6-0.2-4.1,1.9c-0.7,2.9-3.9,2.1-4.2,3.6
		c-0.5,2.9,2.1,5.6,5.1,8.2c0.8,0.7-0.3,4.4,0.4,5.1c2.4,2.1,6.5,3.5,6.5,3.5c1,9.5,2.6,16.2,2.6,16.2c-4.4,0.3-2.1,4.4,0.9,8.6
		l0.2,24.8c0,0-3.9,0.8-3.7,1.8c0.6,2.3,0.7,3.9,3.7,6.5c1.8,1.7,1.9,4.5,1.7,6.3c-0.2,2.1,1.9,3.1,2.4,3.1c4.4-0.1,8-2.2,12.1,9.1
		L203,157.5c-7.7,3.3-20.4,5.2-20.9,5.2c-2.9-1.3,0.4-4.5-0.5-6.6c-1-2.1-2.2-3.8-5.4-3.4c-1.7,0.2-2.7-2.1-3.4-1.9
		c-2.8,0.4-3.5-2.7-4.2-3.2c-2.4-2.3-4.9-2.9-4.4-5L88.4,84.7L90.5,69.2L90.5,69.2z"/>
	<g id="Angola" transform="translate(-111.5439,-93.00714)">
		<path id="path73" inkscape:connector-curvature="0" fill="#2C414F" stroke="#23353E" d="M364.7,578.9c1.9-0.5,3.9-3,5.7-1
			c1.7-2.1,6.4-6.2,13.9,1.6l38.1-0.5l4.1,3.5l24,3.1l15.2-3.4l-10.2-9.2l0.8-32.5l18.3,0.5l-2-2.1l2.2-17.1c-0.3,0.1-0.5-0.1-0.8,0
			c-4.5,1.6-9.2,1.2-13.8,1.3l-1.7,3.2l-3-2.5l3.3-4.5l-4.5-9.2l-0.7-20.5l-7.8,0.6v-3.7l-3.5-0.5l-0.9,1.7l-6.4-0.3l-2.4,9.3
			c-3.1-0.6-6.1-1.4-10.8,1c-4.2-1.4-8,1.8-13.9-19.3l-2.3-1.3l-24.1-0.3l-10.9,3.8c2.7,7.9,8.6,12.3,8.3,24l-1.9,1.8
			c1.6,5.2,3,10.7,6.4,13.3c0.3,1.5-0.4,2.5-0.5,3.7c-0.3,4.1-2.4,15.5-3.4,13.5c0,0-3.8,0.9-4.2,3.9c-0.2,1.6-2.1,1.7-2.7,3.6
			c-1.9,5.2-3.9,13.4-5.4,21c-0.2,0.9-1.3,0.4-1.4,1.3c-0.4,2.4,0.1,4.1-0.1,6.6c-0.1,0.7-1-0.5-1.2,0.4
			C364,574.8,365,578.1,364.7,578.9L364.7,578.9z"/>
		<path id="path75" inkscape:connector-curvature="0" fill="#2C414F" stroke="#23353E" d="M367.4,470.3l4.2-2.6
			c1.8-4.2,3.2-3,4.6-1.1c-1.8,1.7-3.7,3.2-3.8,6.1c0.4,4-1.4,3.7-2.7,4.4c-0.6-1.1-1.4-2.1-1.1-3.4
			C368.6,472.5,368.6,471.3,367.4,470.3L367.4,470.3z"/>
	</g>
	<path id="Benin" inkscape:connector-curvature="0" fill="#2C414F" stroke="#23353E" d="M174.2,275.7l-8,1l-4.2-32.7
		c-0.5-2.4-3-3.6-4.9-5.2l1-5.3l5.2-4.1l5.4,0.2l4-6.5l9,1.4l0.1,7.2c2.6,2.7,2.1,6.5,0.2,7.6c0.2,3.4-0.4,6.3-2.7,6.2
		c-1.4,3.8-2.6,8.2-4.5,9.8L174.2,275.7L174.2,275.7z"/>
	<path id="Botsuana" inkscape:connector-curvature="0" fill="#2C414F" stroke="#23353E" d="M369.8,489.9l-5.6,3.1
		c-5.5,0.1-5.9,3.2-8,5.1l-1.6-4.4l-21,1.8l-1.2,32.5l-8.6-0.2l-0.6,23.4c2.4,2.9,5.5,6,7.2,8.1c1.6,2.1,0.6,6-1,9.8
		c4.2,1.7,8.2,1.8,12.2,0.8c0.6-1.6,1.4-2.7,2.4-3.3c1.7-1,3.1-2.3,3.7-4.4l5.2-4.4c3.2,0.3,5.7,1.6,8.2,3.4c5.3,0.1,8.5-0.9,10.7-2
		l1-4.9l30.7-24.5c-3.8-2.8-5.8-2.2-8-2.7c-2.2-0.5-5-4.5-4.2-11.3c-2.1-0.4-3.5-1.6-4.6-3c-1.3-2.2-3.1-2-4.6-3
		c-2.4-3.3-6.8-7.7-7.2-10.2c-0.2-1.2-0.9-1.1-1.7-2.6C372.1,495.6,370.7,491.9,369.8,489.9L369.8,489.9z"/>
	<path id="Burundi" inkscape:connector-curvature="0" fill="#2C414F" stroke="#23353E" d="M408.6,356.1l1.2-1.2l1.6,0.1l0.8,2.2
		l4.4-0.9l0.2-2.7l5.4-0.3c-1.8,3.1,0.9,4.9,2,6.5c-3.7,8.5-6.7,11.5-9.5,11.7c-3.8,0-3.2,1.4-3.7,2.6c-0.3-3.8-0.1-7.3,0.2-10.4
		C411.5,359.7,410.3,356.9,408.6,356.1L408.6,356.1z"/>
	<path id="Burkina_Faso" inkscape:connector-curvature="0" fill="#2C414F" stroke="#23353E" d="M126.8,246.9
		c-1.7-0.2-2.3-2.4-3.7-3.8c-2.7-2.6-7.8-0.6-12,1.8c-5-2.4-5.7-4.7-6.6-6.7c1-2.7,0.3-6.2,1.7-9.1c1.2-2.5,3.2-4.9,7-6.9l4.5-9.4
		c3.8-1.3,7.3-1.7,10.3-2.8c2.9-1,5.5-2.7,7.2-4.8c5.8-3.5,12.8-8,17.3-7c-0.1,1.4-0.1,2.9,0.9,4.1c1.5,1,1.1,2.7,0.9,4.4l8.8,12
		l3.4,1.1c0.4-0.6,2.9-3.5,4.1,3l2,0.4l-3.9,6.5l-5.5-0.3l-5.2,4.1l-8-1c-4.6-0.1-5,0.8-7,1.4l-17.6-0.5L126.8,246.9L126.8,246.9z"
		/>
	<path id="Demokratische_Republik_Kongo" inkscape:connector-curvature="0" fill="#2C414F" stroke="#23353E" d="M315.9,300.4
		c-1.6,4.6-3.4,7.9-5.3,12.8c-2.5,6.5-1.9,16.7-3.2,25.7c-6.6,3-8.7,7.9-12.2,12.2l-2.6,12.7c-4.8,4.7-9.3,10.7-15.1,11.5
		c-0.3-7.2-6.5-3.7-7.2-0.9c-3,1.9-3.9-0.1-5.5-0.7c-2.1,1.6-3.7,3.3-3.7,5.9c0.3,4.1-1.6,3.9-2.9,4.7l0.8,3.1l11-3.8l24.1,0.4
		l2.2,1.3c5.5,20.3,10,18.3,13.8,19.3c6.1-2.5,7.8-1.1,11-1.1l2.4-9.3l6.5,0.3l0.9-1.7l3.6,0.6l0.1,3.8l7.8-0.6l0.8,20.4l4.5,9.2
		l-3.4,4.5l3.1,2.6l1.7-3.2l10.1-0.2l3.7-1.2l3.1-0.1l1.1,4.5l5.9-1.9c0.3,1.4,0.9,2.4,1.7,3.1c1.9,1.8,5.5,4.3,8.7,4.4
		c2.3,0.1,4.1-2.3,6-1.8c2.7,3.8,5.9,4.8,9.3,5.2c2.4,3.8,4.2,8.6,11.3,7.8l2.7,1.9l-0.2-9.9c-4.9,1.6-7.9-0.7-10.5-3.8
		c0.4-3.9,2.1-7.4,3.8-10.8c0.2-4-0.3-7.7-1.4-11.7c-0.2-0.9,1-4.2,2.4-6l15.9-3.9c-1.7-8.9-7.4-10.7-9.2-17c-2.1-7.7-3-17-1.9-26
		c-0.3-4.2-2.2-6.5-5-7.7l4.7-6.8l3.8-4.2l0.6-14.8l5.4-8.2l8.7-7.8l-5.2-3.4v-9.3l-10.8-9.2c-1,0.1-1.4,1-2.1,1.7
		c-2.2,0.7-4.2-0.3-6.3-0.6c-1.1,2.5-5.8,1.2-6.3-0.3c-0.2-0.4,0.2-1.3-0.4-1.5c-1.4-1.8-2.8-3.1-4.1-4.3l-4.5,0.2l-1.5,1.7
		l-1.7-1.4l-1,1.7l-2.2-2.9l-9.8,0.9v1.6l-4.4,0.8l-0.7-1.7l-11.1,3.5c-3.1-2.3-4.2-1-6-1.1l-1.9,4.2c-9.2-0.3-13-0.3-14.6-2.4
		c-2.9,3.2-3.7-0.7-5.4-1.2c-1-4.7-3.7-3.2-5.5-4.9c-3.4,2.4-5.2,4.6-6.9,6.9C317.3,295.5,316.8,298.1,315.9,300.4L315.9,300.4z"/>
	<path id="Dschibuti" inkscape:connector-curvature="0" fill="#2C414F" stroke="#23353E" d="M528.1,214.7l-5.2,3.8
		c-0.9,2.6-0.4,4.7-1.1,5.9c-3,5.1-2.6,5.4-1.7,6.5c1.3,1.6,4.5,0.4,6.2-0.6l2.7,1.1l3-4.6c-1.8-1.6-3.8-0.7-5.6-0.9
		c0.5-2.3,3.1-2.8,4.9-3.9C532.6,218.2,529.8,215.5,528.1,214.7L528.1,214.7z"/>
	<path id="Elfenbeinkueste" inkscape:connector-curvature="0" fill="#2C414F" stroke="#23353E" d="M82,292.7l3.4,0.3l26.8-7.6l9.6,1
		l1.4-5.7c-0.3-4.5-4.2-9.3,1-13.6c0.4-3.3,0.2-7,3.8-9.1l-1.2-11.3c-1.5,0.1-2.1-1.5-2.9-2.9c-1.7-3-7.5-2.6-12.8,1
		c-2.5-1.8-5.5-3-6.5-6.9c-3.5-1.3-6.3-0.6-8.6,1.4l0.4-3.8c-0.6-1.5-2.6-1-4.9-0.2c-0.6,0.1-0.2,1,0.4,2.2
		c-0.9,0.3-1.7,0.3-2.6,0.5c-0.6,0.7-1.5,1.6-2.4,1.7c-2.4-4.2-3.8-3.4-6.7-1.1c-1,0.8-1.7,2.7-2,4.4c-0.4,1.9,0.3,3.8,2.4,3.5
		l-0.2,2.5c1.5,0.6,1.1,0.9-0.2,2.4c-0.6,0.6,1.7,3.7,1.5,4.4l-4.5-0.9c-0.1,0.7-0.3,1.7-0.3,2.5l2.1,0.9l-1.7,4.5
		c0.2,0.3-2,0.1-2.6,0.2l0.1,2.8c2.4,0.6,1,6-1.1,6.9l3.1,2c0.7-0.5,2.7-0.1,3.9,3.4c0,0,3.1,2,3.1,4.5c-0.1,2-1.4,2.4-1.7,3.8
		L82,292.7L82,292.7z"/>
	<path id="Eritrea" inkscape:connector-curvature="0" fill="#2C414F" stroke="#23353E" d="M481.9,197.9c1.7,1.1,3.2,1,4.9,3.5
		l4.4-0.9l0.9-1.4l0.7-0.2l1,1.8c2.2-1.1,4.1-1.2,5.5-0.1c0.9,0.7,2.1-0.3,3-0.6c1.7,1.4,3.3,2.9,5.2,2.8c5.9,4.9,11,10.2,15.8,15.6
		l5.2-3.6c-0.7-1.9-1.7-3.8-5.2-3.8c-0.2-1.6-0.9-3-3.1-3.8c-0.4-1.9-2.1-1.8-3.4-2.4c-1-3-3.7-4.6-5.9-6.7c-2.4,0.6-3.5-1-4.7-2.6
		l-1.8-0.3l-1.3,0.8c-1.4-1.1-1.7-2.7-2.2-4.3l-2-0.5l0.5,2.7c-1.2,0.7-1.8-1.3-2.4-3.4l-4-5.9c-2.6-12.2-4.9-13.8-7.3-17.1
		c-0.6,1.6-0.7,3.4-1.8,4.2l-5.9,3.1c-1,1.7-2.4,2.2-4,2.2c-2.2,10.6-3.4,17.5-3.2,26h4.6l0.4-1.5l2.1,0.1l1.7,2.7L481.9,197.9
		L481.9,197.9z"/>
	<path id="Gabun" inkscape:connector-curvature="0" fill="#2C414F" stroke="#23353E" d="M247.1,365.8l-15.9-16.4l-3.8-9.7l3.5-3.4
		l1-5.4l4.5,1c0.3-0.3,0.6-0.4,0.4-1l-3.8-2l1.2-5.5l14.9-0.7l0.1-9.5h18.4l-1.4,2l-0.2,6.2c1.7,0.6,2.8-0.7,3.8-2.7
		c2.9-0.4,8,2.1,6.6,7c-2.4,2.6-3.4,5.2-2.6,7.4c0.6,1.7,1.4,3.2,1.8,5.8l-1.4,13l-3,2.2c-1.3-2.2-3.8-3-7.3-2.6
		c-1-1.3-2.1-3-4.1-0.3l-7.7,4.7l0.7,6.3L247.1,365.8L247.1,365.8z"/>
	<path id="Gambia" inkscape:connector-curvature="0" fill="#2C414F" stroke="#23353E" d="M6.3,205.5H16c2.1-2.8,5.2-1.9,8.6,0.6
		l5.6,0.4l1.2,1.6l-4.1,1.4c-2.8-0.6-5.2-1.7-7.5-3.1c-1.7,1-3.5,1.6-5.8,1.3l-1,1.7l-8.4,0.3L6.3,205.5z"/>
	<path id="Ghana" inkscape:connector-curvature="0" fill="#2C414F" stroke="#23353E" d="M159.6,278.5c-0.9,1.1-1,3.5-3.2,2.1
		c-11.6,1.4-16.2,6.3-24.3,9.5l-10.2-3.8l1.4-5.7c-0.3-4.5-4.2-9.3,1-13.6c0.4-3.3,0.2-7,3.8-9.1l-2.7-24.5L143,234
		c2.4-1.3,4.9-1.4,7.4-1.4c-1.4,2.8-0.6,5.4,2.7,7.9c2.7,11.1,2.4,21.7,3.2,32.6L159.6,278.5L159.6,278.5z"/>
	<path id="Guinea" inkscape:connector-curvature="0" fill="#2C414F" stroke="#23353E" d="M18,231c-0.3,1-0.2,1.4,1,1.4
		c0.4,0.6,2.3-3.7,2,0.6l1.6,0.2c-0.5,2.4,1,5.2,2.6,5.8c1.9,0.7,3.1,3,4.2,3.9l2.7,5c1.8,1.3,4.4,0.3,8.4-5
		c-0.4-1.8,2.1-2.7,9.4-2.3c6,4.4,7.9,9.4,5.6,15.2c2.7-0.6,4.2-2.4,8.7-1.3c2.3,2.9,3.7,5.9,1.8,10.2c2.4,1,3.4,3.7,6.9-1
		c-0.2-1,0.6-1.4,1.7-0.6c0.7,0.4,1.7-0.3,2.8,0l1.8-4.7l-2.3-0.9l0.4-2.4l4.6,1c-0.3-1.7-2.6-3.9-1-5.1c0.7-0.8,0.4-1.4-0.3-1.9
		l0.1-2.2c-4.5-0.5-1.9-5.5-0.3-7.9l-2.7-2.4l-0.3-5.5l-2.3,1.7l-0.9-1.3l3-2.7l-4.1-3.1c0.7-2.2-0.2-4.7-1-7.4l-2.9-0.6
		c0.1,1.2-0.3,2.2-1.7,2.6c-1-0.3-1.7,0.3-1.9,2.1l-5.1-2.1l-4,2.9c0.5-1.3-0.8-2.1-1.7-3.1l-2.2,1.5c-1.7,0.6-1.9-0.3-1.9-1.6
		c0.3-0.3,0.8-0.7,1-1.3c-6.3-1-12.8-0.6-18.5-4h-1.8l-0.8,9.7l-4.9,0.1C20.9,226,18.6,230.4,18,231L18,231z"/>
	<path id="Guinea-Bissau" inkscape:connector-curvature="0" fill="#2C414F" stroke="#23353E" d="M4.1,216.9l0.6,1.7
		c1.2,0.9,3.5-0.9,3.4,3.1c1.1,0.6,2.4-0.6,3.3,2.1c1.4,0.7,4.9-5.8,3.6,3.8l3.1,3.4c1.8-2.9,4.6-5.7,7.4-6.7l5-0.1l0.9-9.7l-13-0.1
		c-2.6,1.3-5.3,2-8.2,1.4C8.4,216.4,6.5,216.8,4.1,216.9L4.1,216.9z"/>
	<path id="Kamerun" inkscape:connector-curvature="0" fill="#2C414F" stroke="#23353E" d="M292.2,317.8c-2.4-1-5.2-3.4-6.9-2.4
		l-5.9-2.1l-12-0.1h-18.7l-12.8,0.2l1.3-9.8l-3.4-4.4l1.2-1.6l-0.9-1.3L232,297c-2.7-0.3-3.8-2.4-4.4-4.5c-1.5-0.6-3.6-0.3-3.6-2.9
		c3.1-5.4,3.8-12.8,10-15.8l0.2-2.4l8.7-0.4c3.2,2.1,2.2,4.5,7.8,3.8c3.8-6.9,6.6-19.6,11.6-20.2c3-7.4,3.9-18,9.1-22.4
		c2.5-0.9,4.7-2,5.7-3.7c0.5-1,0.7-4.1,0.2-5.4c-0.3-1-1-0.2-1.9-1.6l-1.5-5.7l1.2-1l4.6,3.9c0.6,3.2,2.3,6.2,1.9,9.6
		c-0.3,5-2.4,5.7,2.6,11.4c0.9,1.4,1,2.9,0.9,4.5l-9.3-1c-1,2.5-3.3,8.3,5.8,10.3l4.4,13l-8,13.4l1.1,9.8
		c3.4,6.3,7.3,12.8,12.8,17.9L292.2,317.8L292.2,317.8z"/>
	<path id="Kenia" inkscape:connector-curvature="0" fill="#2C414F" stroke="#23353E" d="M520.5,347c-1.1,1.8-2.4,3.5-5,3.5
		c-1,2.5-2.2,4.8-5.3,5.6c-3.5,6.3-6.1,13.5-10.5,18.8l-12.1-8.1l-1.9-7.1l-37-23.2l12.2-18.6l0.3-10.5l-4.2-3.4
		c-0.5-4-1.5-7.7-4.7-9.2l4.4-3.8l12.1-0.5l7.5,0.6c2.6,1.3,3.9,1.4,10.7,7l13.6,2.1c2.2-0.7,4.2-1.8,5.7-4.9
		c3.2-0.4,6.8-3.3,11.1,0.7c1.4,0.4,3.7,0.3,5.9-0.1c-2.5,4.1-5.2,7.3-7.9,10.7l0.2,33.8L520.5,347L520.5,347z"/>
	<path id="Libyen" inkscape:connector-curvature="0" fill="#2C414F" stroke="#23353E" d="M253.8,38.1c0,0,1.3,5.2-2.6,7.9
		c-2,1.4-8.5,6.2-8.5,6.2c0.5,2.9,1.2,10.2-5.1,11.1c-4.4,0.7-2.1,4.2,0.9,8.9l0.2,24.7c0,0-3.8,0.7-3.6,1.8
		c0.6,2.3,0.6,3.9,3.5,6.5c1.8,1.7,1.9,4.6,1.7,6.5c-0.2,2.1,2.2,3,2.7,3c4.4-0.1,7.8-2.2,11.9,9.2l20.4,0.6
		c2.4,0.5,4.9,4.1,4.9,4.1l11.7-3.3l68.6,33.9l-0.1-5.5c7.6,0.6,8.5-0.3,8.5-0.3l-4.7-80.2c-2.7-3.8-5.5-7.5-2.2-11.7
		c0,0,0-4.5-0.8-7c-0.9-2.6,1.6-4.5,1.6-4.5c-0.1-3.4-6.6-3.1-10-3.3c-4.5-0.2-7.5-0.9-6.7-4.2c0,0-11.8-4.2-16.3-1.4
		c-2.4,1.5-7.5,3.8-8.5,6.9c-0.6,2.1-0.1,3.4,1.1,5.5c2.1,3.7-5.1,16.1-13.3,6.1c0,0-10.8-3-16.9-4.4c-5.9-1.3-10-6.5-7.6-9.7
		c0.3-0.3-16.2-5.1-16.2-5.1C260.7,41.8,255.2,39.5,253.8,38.1L253.8,38.1z"/>
	<path id="Liberia" inkscape:connector-curvature="0" fill="#2C414F" stroke="#23353E" d="M81.9,292.7l-7.5-2.6l-26.6-21.8l8.5-7.1
		l-0.2-2.5l4.1-4c1.2-0.9,2.7-0.3,4.1-0.1c3.5,5.2,2.6,7.6,1.7,10.2c2,0.5,3.5,3.8,6.9-0.9c-0.1-1.3,0.7-1.3,2.1-0.5v2.5
		c1.1,0.4,1.9,2.6,0.9,4.6c-0.6,1-1,2.1-2.2,2.4l3.5,2.1c1-0.2,1.8-0.9,3.9,3.5c0.4,0.6,5.7,2.8,1.3,7.9L81.9,292.7L81.9,292.7z"/>
	<path id="Madagaskar" inkscape:connector-curvature="0" fill="#2C414F" stroke="#23353E" d="M549.2,565.6l25.3-53.9
		c1.9-6,3.1-12.1,5.9-18.3c1.9-2.6,4.4-5,2.9-8.7l0.5-5.2c0.3-1.6,1.1-1.6,2.4-0.3l0.8,3.1c1-0.3,1.8-0.6,1.8-2.2l-2.6-27.9
		l-4.9-5.2l-2.8,2.4l-0.7,7.2l-1.7,1.4c-0.9-0.3-2.1-1.6-1.7,1.4l-2.4,2.6c-2.7-5.1-3.1-0.6-2.4,1.7c-0.1,1,0.2,2.6-1.1,1.1
		l-1.9,3.1l2.8,2.1h-1.7l-3.6,2.6l0.5-3.1l-3.6,3.6l0.9,4.4l-2.4,0.1l0.4-1.9c-2.2-1.5-4.1,1.7-6,2.7l2.2,3.6l-2.7,0.3l-1.1-3.3
		l-4.5,0.7c0.2,1.6-1.7,2-3.2,2.6l-0.3-2.2l-2.4,2.4l-4.4,0.2l-0.9,3.8l-5.9,8.5c4.5,3.9,2.6,12.7,3.8,19.3
		c-1.7,5.2-4.9,9.3-7.7,13.5c-3.3,2.2-4.9,4.5-5.3,6.6c-0.4,2.1-1.6,6.3-0.9,8.4c0.7,2.4,2.1,1.7,2.2,4.1l0.8,4.1
		c-4.1,15.7,6,15.5,8.3,19.3c1-0.4,2.3,0.3,3.2-0.2c2.2-1.1,4.9-4.1,7.8-3.1C545.6,567.4,547.5,566.4,549.2,565.6L549.2,565.6z"/>
	<path id="Mali" inkscape:connector-curvature="0" fill="#2C414F" stroke="#23353E" d="M115.8,105.4l-13.5,0.3l0.6,77.6l3.5,1.3
		l-2.4,7.6l-39.7-2.2l-4.5,3.2l-2.4-0.9l-1.7-5.2l-2.3-0.6c-4.5,9.8-5.2,8.6-6.8,10.3c0.3,1-0.3,1.9-0.1,2.9c1,2.9,1.7,5.8,0.1,7
		c2.1,1.8,4.7,3.3,5.5,5.9c0.2,3.4-0.1,5.9-1,6.9c-0.9,0.9,0.2,3,2.1,1.4l1.8-1.1c0.6,1,1.9,1.5,1.7,2.9l4-2.7l4.9,2.1
		c0.4-0.7-0.1-1.9,1.8-2.2c1,0.1,1.7-0.7,2-2.4l2.7,0.6c0.7,2.5,1.6,5.1,1.1,7.4l3.9,3l-3,2.8l0.9,1.3l2.2-1.5l0.3,5.3l2.8,2.6
		c1.1-1.1,3-2.6,4.4-1.8c1.3,0.7,1.9,3.3,3.1,2.4c1.2-0.9,1.6-1.7,3.5-1.7c1.5,0-1.2-2.6,0.6-2.5c0.9,0,2.2-1,3.8-0.6
		c1.4,0.3-0.3,5.8,0.7,4.6c2.6-2.9,7.8-1.7,8.3-1.1c1.5-5.2-1.4-10,8.6-16.1l4.5-9.3c5.9-2.4,12.2-1.4,17.6-7.8
		c6.8-4.5,13.6-7.9,17.3-7h6.9l3.8-3.2l18.4,0.2c0.4-0.9,0.7-1.6,3.2-2.9c0-2.2,2-2.4,3.4-3.1l0.7-27.4l-6.9,1
		c-2.7-1.8-0.4-2.4-0.4-6.3c-1.6-3.5-3.5-4.1-5.5-3.7c-1.7,0.3-2.4-2.1-3.4-1.9c-1.6,0.3-3.2-1.1-4.3-3.4c-0.3-0.7-1.3-1.1-1.9-1.6
		c-1.4-1-2.7-1.7-2.4-3.2C164.5,142.7,131.5,117.5,115.8,105.4L115.8,105.4z"/>
	<path id="Malawi" inkscape:connector-curvature="0" fill="#2C414F" stroke="#23353E" d="M450.4,419.5l5.2,17.3l-1.6,15.4
		c3.1,2.8,6.2,5.1,10.6,12.4c0.5,0.9,1.1,3.2,1,5.1l-1.9,8.1l-4.7,2.1l0.3,7.2l-2.5,0.1c1.3-3.3,0.1-2.7-0.5-2.9
		c-3.4-2.2-4.7-5.4-5.4-8.3c2.8-4.4,2.6-7.8,2.4-11.2l-4.6-0.9c-3.6,0.9-4.4-0.4-4.6-1.7c-1.9-4.6-2.9-2.8-3.6-3.1l-2.8-3.8l4.9-9.1
		l3.8-0.4l-2.6-3.4l2.3-11.8l2.2-1.6l-6.2-12.3C443.7,418.2,445.7,418.8,450.4,419.5L450.4,419.5z"/>
	<path id="Marokko" inkscape:connector-curvature="0" fill="#2C414F" stroke="#23353E" d="M89.4,79.7l1.4-10.4l8.2-4.2l1.8,0.5
		l2.9-2.4l4.8,0.3l0.3-2.4c10,0.4,12.1-2.2,13.9-4.9l8.5-3.4h3.1l-1.6-2.1l0.5-1.9l-0.3-2.5c3.2-0.4,7.4,0.1,7.4-3.4l13.6,0.2
		l1.8-4.2c-2.6-1-3.1-4.7-2.7-8.7c0.3-3,0-9.8,0-9.8c-0.9-1.1-2-2.1-2.3-3.7c-2.2-0.4-4.9-0.4-5.8-1.8c-3.1-0.5-6.3-0.9-9.2-0.5
		c-5.2,0.5-7.4-1.4-9.5-6.3c-5-0.3-10.3,10.5-14.2,15.8c-9.4,2.6-16.2,6.8-20.8,12.4c0.6,2.3-0.4,3.1-2.7,4.6
		c-1.5,1-6.6,9.3-4.9,13.8c0,3.6-2.8,9.6-10.8,13.6c0,0-3.8,3.5-9.7,5.4c-2.5,0.9-8.3,1.5-10,3.1L89.4,79.7L89.4,79.7z"/>
	<path id="Mauretanien" inkscape:connector-curvature="0" fill="#2C414F" stroke="#23353E" d="M45.9,135.1
		c1.1-7.8-3.8-18.7,11.4-18.9l3.1-23.4l26.9,2.4l1.5-10.6l27.1,20.8l-13.5,0.3l0.7,77.6l3.4,1.2l-2.4,7.5l-39.8-2.2l-4.5,3.2
		l-2.4-0.8l-1.7-5.2l-2.4-0.6c0,0-4.4,10.8-7.2,9.7c0,0-1.3-1.4-2.6-2.8c-1.2-1.3-2.6-2.5-3.5-4.4c-1.3-2.5-2.3-6.5-4.1-6.2
		c-3.9,0.6-6.9-4.5-6.9-4.5s-4.5-1.3-7.8-0.3c-4.2,1.1-9-0.1-9.8,0.5l3.8-10.7l0.3-12.5l-2.4-3.8c1.2-2.2,5.2-4.3,2.6-10.9
		c-0.3-0.7-1.7-0.3-1.7-0.3l-1.7-4.9l2-2L45.9,135.1L45.9,135.1z"/>
	<path id="Mosambik" inkscape:connector-curvature="0" fill="#2C414F" stroke="#23353E" d="M413.7,467.7l1.8,4.9l-0.2,2.4l6.5,0.4
		l15.1,5.9c1.6,8.5,0.6,15.5-1.9,21.8c-0.1,1.2-0.4,2.4-0.3,3.5c0.3,2.1,1.3,5,0.2,7.4c-3.1,6.2-5.9,12.5-6.6,12.8
		c-2.5,1.4-5.7,5.4-5.7,8.7l1.6,37.3l5.7,0.3l1.6-5.2l-2.3,0.9c0.3-2.1-0.1-4.2,2.1-6.3l18.3-7.2c2.3-1.7,3.7-4.2,5.2-6.5l-2.2-0.7
		l3.8-14.3l-1.9-0.7l-1.6-12.1c-5.2-3.1-2.2-8.1-0.1-9.3l11.1-9.4l0.9,1.9l4.1-4.5l-0.9-1.4l2.7-0.4l0.8-2.4l13.5-6.7l3.4,0.1
		c2.6-1.9,4.6-4.1,8.4-5.7l-0.3-2l4.5-3.5c1.1-1.1,2-2.7,3.4-2.7l0.2-2.3l-0.9-1l2.4-3.7l0.6-2.4l-0.3-1.7l-1.6-2.4l0.5-9.1
		c-1.1-1.1-0.5-1.9,0.1-2.6l-0.3-10l3.7-6.1c0.1-1.7,0.2-3.4-0.3-5.1c-5.6,3.3-14.9,9.2-19.7,6.1c-2.1,0.3-4.4,0.3-6.4,2.9
		c-1.7-0.2-3.2-0.4-5.2-0.3l-6.7,1.2c-1.2-1.5-2.4-2.9-5.2-1.3l-9.8-0.3l-1.6,15.3c4.8,3.8,9.1,8.9,11.2,14c1.3,3.1-1,7.6-1.5,11.5
		l-4.9,2.1l0.3,6.8l-2.4,0.3c0.6-1.4,1.2-2.9-0.9-3.1c-2.6-2.2-4.6-4.7-4.9-8c2-3.2,2.9-7,2.3-11.2l-4.7-0.9c-1.8,0.4-3.9,0.4-4.5-1
		c-1.2-3.8-2.4-4.1-3.9-3.7L413.7,467.7L413.7,467.7z"/>
	<path id="Namibia" inkscape:connector-curvature="0" fill="#2C414F" stroke="#23353E" d="M253.2,485.9c0.3,4.9,0.9,9.8,5.3,13.3
		l18.6,33.2l0.4,15.2l3.3,7c0.2,2.7-0.9,5.5,0.9,8.2l2.4,13l10.1,11.3c6.3-6.7,8.6-1.3,10.1,3c3.8-0.3,7.7-0.7,11.5-0.1
		c1.8-1.7,3.7-3.2,6.5-4.5l1.5-57.8l8.6,0.3l1.2-32.6l20.9-1.8l1.6,4.4c1.5-1.7,3.5-4.7,6.6-4.9c2.8-0.1,4.1-1.9,6.9-3.4l-2-2.9
		l-13.5,2.2l-15,3.5l-24.3-3.2l-4.1-3.4l-38.3,0.4c-1.8-2.4-8.7-7.9-13.8-1.4C257.1,482.9,255.1,485.5,253.2,485.9L253.2,485.9z"/>
	<path id="Niger" inkscape:connector-curvature="0" fill="#2C414F" stroke="#23353E" d="M189.4,161.9l-0.7,27.4
		c-1.2,0.7-2.9,0-3.4,3c-1.4,0.8-3,1.3-3.3,2.9l-18.5-0.2l-3.8,3.1l-7,0.1c-0.2,1.6-0.2,3.4,1,4.4c1,0.9,0.9,2.6,0.6,4.1l8.9,11.8
		l3.2,1.2c1.8-1.6,3.4-2,4.2,3.2l11,1.6c0.8-1.7,0.6-4.2,2.6-5.1c3-1.7,2.4-4.6,3.6-7c2.4-1.1,0.9-2.8,13.8-2.7
		c3.3,2.1,6.6,2.8,10,7l2.6,0.1c0.1-0.9,2.7-2.7,4.3-3c1.7-1,4.8,0.7,8.9,4.3l7.3,0.6l7-5l12.2-0.3c1.8,0.7,3.2,2.4,5.9,1.7
		c1.9-2.2,5.7-4.4,10-6.1c-0.7-1.9-1.4-3.8-0.8-6.3c1-0.9,2.4-1,2.4-4.3l14.8-16.4l2.7-26.2l2.1-5.2c-4.2-1.7-7.2-3.4-8-9.2
		c-0.5-3.1,0.2-7.2-0.1-13.2l-2.6,0.4c-1.4-1.7-2.9-3.5-4.7-4.2l-20.7-0.7l-52.5,34.6L189.4,161.9L189.4,161.9z"/>
	<path id="Nigeria" inkscape:connector-curvature="0" fill="#2C414F" stroke="#23353E" d="M224,289.7l-1.8-0.1l-0.6,3.1
		c-3.1,0.1-6-0.3-9.2-1.4c-7.3,4.5-13,3.8-16-6.6c-2.3-5.8-5.9-7.7-9.8-9l-12.7,0.1l0.5-20.2c2-2.5,3.2-6.1,4.4-9.9
		c3.4-0.9,2.6-3.8,2.8-6.3c3.4-2.2,1.1-5.8-0.2-8.1l0.2-6.5c0.3-1.8-0.2-3.8,2.5-5.6c1-1.3,2.1-0.6,3.1-6.9
		c1.8-1.4,3.8-2.9,13.8-2.5c3.5,1.8,8,3.3,10.3,7.1l2.3-0.1c1.4-1,1.9-2.8,4.5-2.9c1.5-0.1,1.6-1.5,8.7,4.1l7.4,0.7l6.9-5l12.4-0.3
		c1.8,0.7,3.2,2.4,5.7,1.7c3.1-3.1,6.9-4.7,10.4-6.2c1.4,2.3,3.4,4.5,5.2,5.9l-1.1,1l1.5,5.9c0.7,0.5,1.9,0.7,2,1.7
		c1.3,5.9-1.9,7.7-5.9,9c-5,3.8-6.2,14.5-9.1,22.1c-5.5,1.7-7.4,11.9-11.6,20.3c-4.1,0.8-5.2-1.2-7.7-3.9l-8.9,0.6l-0.2,2.4
		C228.3,276.8,227,283.5,224,289.7L224,289.7z"/>
	<path id="Republik_Kongo" inkscape:connector-curvature="0" fill="#2C414F" stroke="#23353E" d="M255.9,377.3l-8.9-11.4l5.9-3.8
		l-0.7-6.5l7.3-4.4c1.2-1,2.2-3.3,4.4,0.2c3.8-0.4,6.1,0.5,7.3,2.4l3.1-2.1l1.2-12.7c-0.1-4.4-5-7.2,0.9-13.5c1-4.1-2.7-7-6.7-6.7
		c-1,1.3-1.4,3.3-3.8,2.8l0.1-6.1l1.5-2.2l11.9,0.2l5.8,2.1c2.2-1.1,5,2.2,7,2.4l-0.3-9.8c4.5-5.8,7.8-7.4,11.5-8.3l5.7,2.6l7-1.9
		c-1.7,4.6-3.6,8.3-5.3,12.8c-3,7.7-2,17.1-3.3,25.8c-6.5,2.9-8.7,7.8-12.1,12.2l-2.8,12.8c-6,6.5-11.4,11.7-14.9,11.4
		c0-3.7-4-6.9-7.3-0.9c-2.3,1.5-3.9,0.7-5.6-1c-2.5-3.3-3.3-0.5-4.5,1.1L255.9,377.3L255.9,377.3z"/>
	<path id="Ruanda" inkscape:connector-curvature="0" fill="#2C414F" stroke="#23353E" d="M421,341.6l-3.9,3.1h-1.3l-0.8-1.1
		c-3.4,3.4-6,7.3-8.6,11.1c1,0.2,1.7,0.7,2.3,1.4l1.2-1.2l1.5,0.1l0.7,2l4.5-0.9l0.2-2.7l5.5-0.3c0.8-1.1,1.6-2.2,2.7-3.3L421,341.6
		z"/>
	<path id="Sambia" inkscape:connector-curvature="0" fill="#2C414F" stroke="#23353E" d="M422.5,405.4l-16.1,3.9
		c-1,1.9-1.8,3-2.2,5.2c-0.1,0.6,0.3,1.7,0.5,3.2c0.3,3.1,1.4,8.6,0.4,10c-2.3,3.5-3.8,9.9-3.7,10c1.2,1.8,3.9,3.7,5.4,4.1
		c2.1,0.6,4.5,0.3,5-0.4l0.3,10.1c-0.9-0.7-2-1.1-2.6-1.9c-3.4-0.3-6.5,1.6-11.4-7.9c-3.2-0.3-6.5-1.2-9.3-5.2
		c-1.4-0.3-3.6,1.5-5.7,1.9c-5.8-0.6-7.5-3.3-9-4.2c-1-1-1.7-2-1.8-3.2l-5.9,2l-1-4.6l-2.4,0.1l-2.1,17.3l1.9,1.9l-18.3-0.4
		l-0.9,32.5l10.1,9l13.8-2.2l2,3l0.9,2.1l10.7,0.1l1.5,1.2l2-0.5c5.8-7.6,11.1-9.5,16.5-12.1l0.2-5.1c4.2-2.6,8.7-4.1,14.1-3.1
		l-1.9-5l26.7-8.4l-2.9-4.2l4.8-9l3.8-0.4l-2.4-3.2l2.2-11.8l2.2-1.6l-4.4-8.6l-2-3.9l-10.2-3.4c-3.5-5-4.4-4-5.4-3.8L422.5,405.4
		L422.5,405.4z"/>
	<path id="Senegal" inkscape:connector-curvature="0" fill="#2C414F" stroke="#23353E" d="M11.5,178.1c-1.6,2.7-2.6,4.1-2.7,6.3
		c-0.1,5-5.2,6.6-7.7,10.3c2.4,3.4,4.9,6.7,5.2,10.7H16c2.1-2.8,5.2-1.9,8.6,0.6l5.6,0.4l1.2,1.6l-4.1,1.4c-2.8-0.6-5.2-1.7-7.5-3.1
		c-1.7,1-3.5,1.6-5.8,1.3l-1,1.7l-8.5,0.3c-0.4,2.3-1,4.6-0.5,6.9c2.1-0.2,4,0.1,6.2-1c2.9,0.7,5.7,0.1,8.3-1.4l14.6,0.2
		c5.5,3.1,12.3,3.5,18.7,3.8c0.3-3.3,2.2-6.6-5.1-11.6c1.1-1.4,0.7-4.7-0.3-7.1c-0.5-1.3,0.5-1.7,0-3.1c-0.7-0.3-1.6-1.5-2.6-2.5
		c-1.3-1.2-3.9-4.7-3.9-4.7c-1.6-4.6-3.5-6.5-3.5-6.5c-4.7,0.8-7.6-4.5-7.6-4.5c-4-1.1-6.1-0.3-7.9-0.2
		C16.4,178.3,15.4,178.8,11.5,178.1L11.5,178.1z"/>
	<path id="Sierra_Leone" inkscape:connector-curvature="0" fill="#2C414F" stroke="#23353E" d="M47.7,268.2l-6.9-3.5
		c-0.8-2.2-2.9-3.3-5.1-4.5c0.2-3-1.8-3.7-3.1-4.8l-0.4-7.2c3.1,1.1,5.8-1.9,8.4-5.2c-0.6-2.6,5.4-2.4,9.4-2.4
		c4,3.5,8.2,6.9,5.7,15.4c1.7-0.6,3.3-1.4,5.2-1.8l-4.8,4.5l0.2,2.5L47.7,268.2L47.7,268.2z"/>
	<path id="Simbabwe" inkscape:connector-curvature="0" fill="#2C414F" stroke="#23353E" d="M370.5,491.9l2.7,5.4
		c0.9,1,2,1.9,1.9,3.7c2.1,3.6,4.7,6.1,7.1,9.1c1.8,0.6,3.4,1.4,4.5,2.9c1.1,1.4,2.4,2.7,4.6,3.1c-1,5.5,1.6,10.2,4.1,11.3
		c3.1,0.2,5.9,0.7,8.1,2.8c6.2,0.7,7,1.6,8.5,2.4c5.2-1.7,7.5,1.1,10.4,3.1c0.7-4.2,3.1-6.5,5.9-8.6c2.2-3.1,4.2-8.2,6.3-12.3
		c1.6-2.6,0.3-5.3-0.1-8l0.4-3.4c3.8-9.4,2.6-15.1,2-21.7l-15.3-5.9l-6.5-0.4l0.2-2.2c-5.4-1.7-9.9,0.6-13.9,2.9l-0.2,5
		c-12.5,5.6-13.2,8.6-16.6,12.1l-1.8,0.6l-1.6-1.4L370.5,491.9L370.5,491.9z"/>
	<path id="Somalia" inkscape:connector-curvature="0" fill="#2C414F" stroke="#23353E" d="M532,226.9l-3.1,4.9
		c-3,4.4,5.2,11,12.1,17.3l26.3,8.5l8.5-0.3l-25.5,29.2l-10.3-0.2c-3.2,1.8-6.5,3.8-8.8,6.1c-2.7,1.7-5.7,2.7-8.6,4
		c-1.7,3.8-4.7,7-7.4,10.3l0.1,33.9l5.2,6.5l11.9-13.3l19.9-18.8l2.3-0.3l8.3-7.9l0.3-1.6c4.6-3.5,10.3-9.3,11.7-12.2
		c2.5-5.2,5.8-9.4,9.4-13.5l7.9-22.6c1.6-1.5,2.7-3.4,3.7-5.7c0.4-2.4,1.8-3.2,2.9-4.5l0.9-11.4c2.5,0.3,1.3-4.6,1.5-7.8
		c-1-0.9-2.1-2.4,0-3.5v-2.9c-1.8,0.2-3.7-1.9-5.5-0.5c-2.3,2.1-5.2,3.7-8.7,3.9c-3.8,0.3-7,2.5-8.6,2c-2.6,2.2-5.9,2.9-10.2,1.7
		c-2.9,2.5-4.7,5.9-14,3.5l-5.9,4.2C539,238.4,536.5,231.1,532,226.9z"/>
	<path id="path3246" fill="#2C414F" stroke="#23353E" d="M452.7,248.5L452.7,248.5l-4.1,1.5v-6.2l-2.4-4.5l-3.9-1.5l-3.1-17.6
		l-3.4-1.4v3h-6l3.1,2.4l0.5,7.3l-9.1,11.5l-8.6-5.6l-5.7,2.1v3l-4.9,1.6l-0.1-3.1l-10.7-0.3v3.9H384l-3.4,0.3l-2.4-4.5h-2.9h-4.2
		l-7.7,15v0.2c0.1,0.1,0.2,0.1,0.3,0.1c1.1,1.6,1.6,3.4,6.7,2.9l3,2.7c-0.6,4.5,6,7,9.9,10.2l3.6,7.2c3.1,1.6,6.9,2.2,7.3,7.4
		c2.1,1.1,2.9,2.9,4.4,4.5c0.7,0.7,0.1,1.4,0.7,1.9c1.9,1.6,5.5,1.9,6-0.3c0,0,3.2,1.3,5.7,1c1.5-0.2,1.3-1.6,2.8-1.9l10.6,9.3
		l1.9-1.4c7.3,1.7,14.5,0.7,21.8-0.3l8.6-7.4l12-0.4l0.1-6.2l-6.2-2.1l-4.3-9.4l-6.2-5.2c1-1.7-1.8-3.3-3.2-5
		c-1.9,0.5-4.1,0.1-6.3-1l1.6-2l-0.1-2.9l5.7-0.1c1.1-0.7,2.3-1,3.1-2.7L452.7,248.5z"/>
	<path id="Sudan" fill="#2C414F" stroke="#23353E" d="M456.3,123.4l-2.9,2.9l-2.4-0.5l-1.1,4.7l-5.2,1.3l-0.4,3.8l-4.5,0.5l-2.2-2.2
		l-69.7,2.1l0.9,17.5c-3,0.2-6,0.2-8.5-0.1l0.1,5.5l0.8,33l-9.4,0.5l0.1,3.5l-5.4,6.9l0.3,4.9l-1.8,0.9c-0.2,3.1-0.5,5.7-1.8,6.5
		l0.1,3.9l3.9-0.9c0.8,4.5,1,9.1,4.7,12.5l0.4,3l-1.7,0.3c3,3.7,6.4,7.2,8.3,11.4c-3.3,10.2,1.4,8.8,4.3,10v-0.2l7.7-15h4.2h2.9
		l2.4,4.5l3.4-0.3H394v-3.9l10.7,0.3l0.1,3.1l4.9-1.6v-2.8l5.7-2.1l8.6,5.6l9.1-11.6l-0.5-7.3l-3.1-2.4h6v-3.1l3.4,1.4l3.5,17.7
		l3.9,1.5l2.4,4.5v6.2l4.1-1.5l0,0l-0.1-10.7l2.6-3.9l2.7,0.1l1.3-6.8c3.1-3.9,4.5-8.9,9.5-11.8l1.7-12.8c-1-9.1,1.8-16.9,3.1-25.2
		c1.3-0.5,2.8,0.4,3.9-2.1l5.9-3c1.1-0.8,1.6-2.6,1.9-4.5c-0.8-1.8-1.9-1.5-3-1.7c-1.7-3.3-4.6-3.7-7.2-4.9l-3.5-21.1l-2.7-3
		C469.5,129.4,460.6,128,456.3,123.4z"/>
	<path id="Suedafrika" inkscape:connector-curvature="0" fill="#2C414F" stroke="#23353E" d="M294.3,587l14.2,28.5l0.2,6.5
		c-0.7,1.6-1.9,1.7-3.2,1.4c-0.5,0.7-1,1.7,0.2,2.4c1.7,3.1,3,6.9,5.2,9.5c1.8,2.2,4.5,3.3,6.7,5.2l5.7,0.4c1.1-0.8,0.1-1.9,4.4-2.4
		l8.2-0.1c2.6-1-0.3-3.6,8.2-3c1.4,0.2,2,1.7,4.2,0.5c3.9-0.6,7.7,0.9,11.5,1.4c1.1-0.9,0.7-2.4,7.2-1.2l0.6-2.4l7.5,0.1l44.4-41.2
		c7-2.9,8.6-11.4,10.6-19.6l-5.6-0.3c-0.1-0.7-5.3,3.1-6,3.1c-2.9,0.3-4.5-0.6-4.1-5.6c0.3-3.8,4.4-6.7,5.4-7.4
		c1.4-0.9,2.8,2.5,4.2,1.7c0,0-0.4-15.9-1.1-29.2c-3-1.8-5.2-5-10.5-3.1c-2.8-2.1-5.6-1.9-8.4-2.5l-30.8,24.4l-1.1,5.1
		c-3.5,1.8-7,1.6-10.5,1.9c-2.6-2-5.5-3.2-8.6-3.4l-5.2,4.5c-0.4,2.4-1.9,2.7-3,3.8c-1.7,1-2.6,2.4-3,3.8c-5.2,1.3-8.7,0.4-12.1-0.7
		c0.6-3,2.6-5,1-9.9l-7.2-7.9l-1,34.3c-2.2,1-4.4,2.4-6.5,4.5c-3.6-0.3-6.6-0.8-11.6,0.1C303.5,586.3,300.1,580.1,294.3,587z"/>
	<path id="Swasiland" inkscape:connector-curvature="0" fill="#2C414F" stroke="#23353E" d="M423.8,565.1l0.4,7.8
		c-2.4,1.1-4.1,2.4-6,3.5c-2.2-0.1-3.5-0.6-3.9-2.4c-0.5-2.7-0.2-4.6,1.3-7c1.1-1.7,3.1-3.8,4.5-4.1c0.7-0.1,1.7,1,2.4,1.8
		L423.8,565.1L423.8,565.1z"/>
	<path id="Tasania" inkscape:connector-curvature="0" fill="#2C414F" stroke="#23353E" d="M448.7,336.4l-3.2,4.7l-24.3,0.4l3.9,8.2
		c-6.3,6.3-2.3,7.5-0.8,10c-2.7,5.2-4.9,11.4-10.3,11.6c-1.4,0.3-2.4,0-2.6,1.7c-0.6,3.9,1.1,12.2,2.7,17c1.7,3.7,4.5,6.2,6.1,9.3
		c1.4,2.1,1.8,4.3,2.4,6.4l3.4,3.8c1.4-0.4,3-0.1,5.2,3.7l10.1,3.3c2.2,2,5.7,2.6,9,3.1l5.2,17.5l10,0.3c1.7-1,3.4-1,5.2,1.2
		c3.7-0.6,7-1.6,11.8-1c1.6-1.7,3.4-2.9,6.6-2.7c3.8,3,14.7-3.1,19.3-6.2c-1.1-2.1-3.2-3.1-5.2-4.5c0.2-2.4-0.8-4.9-1.7-7.4
		c-1-1.6-1.7-3.1-1.1-4.2l-2.4-5l1.4-0.4c-0.3-3.8-0.3-7.4,1.9-9.8c-1.6-3.2-6.9-5.8-6.6-9.7l4.5-12.8l-12.1-8l-2-7.2L448.7,336.4
		L448.7,336.4z"/>
	<path id="Togo" inkscape:connector-curvature="0" fill="#2C414F" stroke="#23353E" d="M159.6,278.6l6.3-1.8l-4.2-32.7
		c-0.5-2.4-3-3.6-4.9-5.2l1-5.3l-7.4-1c-1.4,2.8-0.6,5.4,2.7,7.9c2.7,11.1,2.4,21.7,3.2,32.6L159.6,278.6L159.6,278.6z"/>
	<path id="Tunesien" inkscape:connector-curvature="0" fill="#2C414F" stroke="#23353E" d="M246,2c-1.6,0.1-7.8-3.2-11.4,1.9
		c0,0-2.6,1.1-2.8,3.8c-0.2,4.2-0.6,17.1-0.6,17.1c-0.4-0.7-3.6-0.2-4.1,1.9c-0.7,2.9-3.9,2.1-4.2,3.6c-0.5,2.9,2.1,5.6,5.1,8.2
		c0.8,0.7-0.3,4.4,0.4,5.1c2.4,2.1,6.5,3.5,6.5,3.5c1,9.5,2.6,16.2,2.6,16.2c0.6,0.3,7.3-1.9,5-11.3c-0.3-1.1,13.6-5.6,11.1-14.3
		c-0.3-0.9-2.5,0.2-2.9-1.5c-0.9-3.7-0.7-4.6-2.1-5.2c-0.7-0.3-3.7,2.5-4.2,2.2c-1.3-0.8-3-2.6-2.3-3.6c1.2-1.6,10.1-7.1,10.2-10.1
		c0.2-4.5-1.6-5-3.8-6.2c-1.2-0.7-0.8-2.8-0.4-4.1c0.3-0.7,5.1-2.4,4.5-4.1c-0.3-1.1-1-1.4-1.3-2.3c-0.2-0.7-3.8,3.1-4.1,2.5
		C246.8,4.1,246.7,3.1,246,2L246,2z"/>
	<path id="Tschad" inkscape:connector-curvature="0" fill="#2C414F" stroke="#23353E" d="M360.4,159l-68.8-33.8l-9.1,2.7
		c0.6,5.4,0.2,9.5,0.3,12.8c0.2,4.8,3.5,8.2,8,9.8l-2.1,5l-2.9,26.5l-14.3,15.8c-0.4,0.9-0.7,1.8-0.6,2.7c-0.4,1-1,1.5-1.7,1.7
		c-1,0.6-0.5,1.7-0.6,2.4c-0.9,5.6,10.8,13.9,10.8,13.9c0.6,2.5,1.5,4.7,1.9,7.4c0.4,2.9-1,6.3-0.5,8.8c0.6,3.7,4.6,3.9,4.1,9.5
		l-9.2-0.9c-2.7,5.3-0.8,8.8,5.8,10.3l4.4,12.9c7-1.6,11.9-0.7,21-4.9l8.3-0.9c1.6-2.6,4.7-4,3.7-8.5l11.4-1.3
		c0.9-0.9,1.3-2.1,2.8-2.4c2.3-0.1,2.9-1.6,3.5-3.1c1-2.4,3.7-3.4,5.7-4.9c0.3-8.2,6.6-5.9,10.3-7.4l-0.4-2.9c-2.2-2.4-4-5-4.7-12.5
		l-4,0.7l-0.1-3.7c1.2-1.3,2.1-4.5,1.8-6.6l1.8-0.9l-0.4-4.7l5.5-7.1l-0.2-3.5l9.5-0.5L360.4,159L360.4,159z"/>
	<path id="Uganda" inkscape:connector-curvature="0" fill="#2C414F" stroke="#23353E" d="M424.5,300l1.7-1.3
		c7,1.8,14.3,0.7,21.7-0.3l4.4-3.7c2.4,1.5,4.4,3.9,4.7,9.2l4.2,3.4v10.2l-15.6,23.6l-24.5,0.4l-3.8,3l-1.5,0.1l-0.9-1.1l0.6-14.6
		l5.5-8.3l8.7-7.8l-5.2-3.3L424.5,300L424.5,300L424.5,300z"/>
	<path id="Westsahara" inkscape:connector-curvature="0" fill="#2C414F" stroke="#23353E" d="M45.9,135.3
		c1.1-7.8-3.8-18.7,11.4-18.9L60.4,93l26.9,2.4l2.1-15.8l-35.9-2.6c-3.3,5.2-5.2,9.4-10.3,11.4c-4.7,1.9-6.6,7.8-8,12.8l-14.2,16.2
		c-0.5,3.7-2.6,6.1-5.5,8c-2.6,3.4-4.2,7.6-4.5,11.3l3.6-3.2C14.5,133.3,45.9,135.3,45.9,135.3z"/>
	<path id="Zentralafrikanische_Republik" inkscape:connector-curvature="0" fill="#2C414F" stroke="#23353E" d="M286.1,266.7
		l-8.1,13.3l1.1,9.7c3.5,6.8,7.5,13.1,12.9,18.2c3.3-3.8,4.8-6.6,11.4-8.3l5.8,2.5l6.5-1.8c1.6-1.8,1.5-4.8,1.6-7.6
		c2.2-3.7,4.6-5.5,7-7.2c1.8,1.4,5,0.3,5.2,4.5c2.1,2.4,4.1,3.8,5.7,1.6c1.8,2.6,9.4,1.8,14.6,2.4c0.3-1,0.9-2.3,1.9-4.2
		c1.7-0.3,3.3-1,6,1l11-3.8l0.7,1.7l4.5-0.7l-0.1-1.7l9.8-0.8l2.2,2.8l1-1.6l1.7,1.2l1.4-1.7l4.5-0.2c-1-2.6-0.5-5.7-7.4-7.2
		l-3.5-7.2c-3.5-3.4-9.9-5-10.3-10.5l-2.7-2.6c-2.4,0.1-4.4,1.1-6.9-3.1c-4.2-0.6-7-1.3-4.3-9.7c-2.1-5.2-5.4-7.6-8.2-11.5
		c-5.9,1.1-8.3,0.9-8.6,7c-1.9,1.6-4.7,2.3-5.5,4.6c-0.7,1.7-1.4,3.1-4,3.3c-0.7,0.4-1.7,1.4-2.6,2.4l-11.3,1.1
		c0.6,2.1,0.3,4.1-2.1,6.5c-0.6,0.6-1.1,1.4-1.7,2.1l-8.1,0.7C297.5,266,292.8,265.2,286.1,266.7L286.1,266.7z"/>
	<path id="Lesotho" inkscape:connector-curvature="0" fill="#2C414F" stroke="#23353E" d="M395.1,602c-0.6,0.1-1.7,0.3-2.5,0.6
		c-0.6,0.2-1.1,0.4-1.6,0.9c-0.3,0.3-0.4,0.9-0.6,1.3c-0.1,0.4-1.1,1.1-1.5,1.2c-0.5,0.2-1.2,0-1.8,0c-1.1,0-1.7-0.3-2.4-1.1
		c-0.8-1-1.8-1.9-2.5-3.1c-0.5-0.9-1-1.4-1.2-2.3c-0.2-0.7-0.2-1.4-0.2-2.1c0-0.9,0.4-1.7,1.2-2.1c0.1-0.1,0.2-0.1,0.3-0.2
		c1-0.4,1.1-1.6,1.8-2.2c0.7-0.7,1.7-1.4,2.5-2.1c0.5-0.4,1.2-0.9,1.8-1.1c0.9-0.4,1.7-0.7,2.7-0.9c0.7-0.2,1.6-0.4,2.1-0.6
		c0.1-0.1,0.2-0.1,0.3-0.1c0.2,0,0.2-0.1,0.3-0.1c0.9-0.2,1.9,0.3,2.4,0.9c0.6,0.9,1.4,1.7,2,2.4c0.3,0.4,0.3,1.4,0.6,2
		c0.3,0.8,0.9,1.4,1.1,2.2c0.3,0.9-0.1,1.7-0.4,2.4c-0.4,0.9-1,1.4-1.7,2.1c-0.5,0.5-1.1,1-1.7,1.4
		C395.9,601.6,395.4,601.7,395.1,602z"/>
</g>
<g id="WQTQx1_1_">
	
		<image overflow="visible" width="776" height="940" id="WQTQx1_2_" xlink:href="B253DD1B24B11B2D.png"  transform="matrix(0.5 0 0 0.5 748.0835 72.8547)">
	</image>
</g>
</svg>
